<svg width="25" height="25" viewBox="0 0 25 25" fill="none" xmlns="http://www.w3.org/2000/svg">
<path fill-rule="evenodd" clip-rule="evenodd" d="M12.5 25C19.4036 25 25 19.4036 25 12.5C25 5.59644 19.4036 0 12.5 0C5.59644 0 0 5.59644 0 12.5C0 19.4036 5.59644 25 12.5 25ZM14.2045 6.13647H16.25V8.86375H14.2045C14.0237 8.86375 13.8503 8.93559 13.7224 9.06345C13.5946 9.19132 13.5227 9.36474 13.5227 9.54557V11.591H16.25L15.5682 14.3183H13.5227V19.7729H10.7955V14.3183H8.75V11.591H10.7955V9.54557C10.7955 8.64142 11.1546 7.77431 11.794 7.13498C12.4333 6.49565 13.3004 6.13647 14.2045 6.13647Z" fill="#D4D7E5"/>
</svg>
