<svg width="25" height="25" viewBox="0 0 25 25" fill="none" xmlns="http://www.w3.org/2000/svg">
<path fill-rule="evenodd" clip-rule="evenodd" d="M12.5 25C19.4036 25 25 19.4036 25 12.5C25 5.59644 19.4036 0 12.5 0C5.59644 0 0 5.59644 0 12.5C0 19.4036 5.59644 25 12.5 25ZM18.4718 17.2826V15.4725C18.4791 15.1766 18.3775 14.8883 18.1861 14.6625C17.9948 14.4366 17.7271 14.289 17.434 14.2477C16.8548 14.1713 16.286 14.0296 15.7386 13.8253C15.5226 13.7441 15.2879 13.7266 15.0623 13.7747C14.8367 13.8228 14.6296 13.9346 14.4655 14.0968L13.6992 14.8631C12.1887 14.0042 10.938 12.7535 10.0791 11.2429L10.8454 10.4767C11.0076 10.3126 11.1194 10.1055 11.1675 9.87989C11.2156 9.65426 11.1981 9.41956 11.1169 9.2036C10.9126 8.65619 10.7709 8.08743 10.6945 7.50817C10.6535 7.21822 10.5085 6.95307 10.2865 6.76214C10.0645 6.5712 9.78063 6.46751 9.48781 6.4704H7.67775C7.51022 6.47055 7.34456 6.50559 7.19131 6.57328C7.03807 6.64097 6.9006 6.73983 6.78765 6.86356C6.67471 6.98728 6.58876 7.13318 6.53529 7.29194C6.48182 7.45071 6.46199 7.61887 6.47707 7.78571C6.67511 9.65069 7.30968 11.4428 8.32937 13.0168C9.25573 14.4746 10.4917 15.7106 11.9495 16.637C13.5164 17.6531 15.2998 18.2875 17.1565 18.4893C17.3238 18.5044 17.4925 18.4844 17.6517 18.4306C17.8109 18.3767 17.957 18.2902 18.0809 18.1766C18.2047 18.063 18.3034 17.9248 18.3707 17.7709C18.4381 17.6169 18.4725 17.4506 18.4718 17.2826Z" fill="#D4D7E5"/>
</svg>
