<svg width="25" height="25" viewBox="0 0 25 25" fill="none" xmlns="http://www.w3.org/2000/svg">
<path fill-rule="evenodd" clip-rule="evenodd" d="M12.5 25C19.4036 25 25 19.4036 25 12.5C25 5.59644 19.4036 0 12.5 0C5.59644 0 0 5.59644 0 12.5C0 19.4036 5.59644 25 12.5 25ZM6.89995 7.00012H18.1C18.6246 7.00012 19.0843 7.29265 19.324 7.72268C19.2454 7.74308 19.169 7.77762 19.0985 7.82693L12.5 12.4459L5.90139 7.82693C5.83094 7.77761 5.75456 7.74307 5.67593 7.72267C5.91558 7.29265 6.37526 7.00012 6.89995 7.00012ZM12.9014 13.8739L19.5 9.25486V16.8001C19.5 17.5701 18.87 18.2001 18.1 18.2001H6.89995C6.12995 18.2001 5.49995 17.5701 5.49995 16.8001V9.25484L12.0985 13.8739C12.3396 14.0426 12.6604 14.0426 12.9014 13.8739Z" fill="#D4D7E5"/>
</svg>
