<svg width="30" height="30" viewBox="0 0 30 30" fill="none" xmlns="http://www.w3.org/2000/svg">
<path fill-rule="evenodd" clip-rule="evenodd" d="M15 30C23.2843 30 30 23.2843 30 15C30 6.71573 23.2843 0 15 0C6.71573 0 0 6.71573 0 15C0 23.2843 6.71573 30 15 30ZM6.81133 9.26678C7.09894 8.75091 7.65048 8.4 8.28 8.4H21.72C22.3495 8.4 22.9011 8.75091 23.1887 9.26678C23.0944 9.29127 23.0028 9.3327 22.9183 9.39184L15 14.9346L7.08171 9.39184C6.99721 9.3327 6.90562 9.29127 6.81133 9.26678ZM15.4817 16.6482L23.4 11.1054V20.16C23.4 21.084 22.644 21.84 21.72 21.84H8.28C7.356 21.84 6.6 21.084 6.6 20.16V11.1054L14.5183 16.6482C14.8075 16.8506 15.1925 16.8506 15.4817 16.6482Z" fill="white"/>
</svg>
