<svg width="30" height="30" viewBox="0 0 30 30" fill="none" xmlns="http://www.w3.org/2000/svg">
<path fill-rule="evenodd" clip-rule="evenodd" d="M15 30C23.2843 30 30 23.2843 30 15C30 6.71573 23.2843 0 15 0C6.71573 0 0 6.71573 0 15C0 23.2843 6.71573 30 15 30ZM22.1662 20.7388V18.5667C22.175 18.2117 22.053 17.8657 21.8234 17.5947C21.5938 17.3237 21.2726 17.1466 20.9208 17.097C20.2257 17.0053 19.5432 16.8353 18.8863 16.5901C18.6272 16.4927 18.3455 16.4716 18.0748 16.5294C17.804 16.5871 17.5555 16.7213 17.3586 16.916L16.4391 17.8355C14.6265 16.8048 13.1256 15.3039 12.0949 13.4913L13.0145 12.5718C13.2091 12.3749 13.3433 12.1264 13.401 11.8556C13.4588 11.5849 13.4377 11.3032 13.3403 11.0441C13.0952 10.3872 12.9251 9.70469 12.8335 9.00957C12.7843 8.66164 12.6103 8.34345 12.3438 8.11433C12.0774 7.88521 11.7368 7.76078 11.3854 7.76424H9.21331C9.01228 7.76443 8.81349 7.80648 8.62959 7.8877C8.4457 7.96893 8.28074 8.08756 8.1452 8.23603C8.00967 8.38451 7.90653 8.55958 7.84237 8.7501C7.7782 8.94061 7.7544 9.1424 7.7725 9.34262C8.01015 11.5806 8.77164 13.7311 9.99526 15.6199C11.1069 17.3693 12.5901 18.8525 14.3394 19.9641C16.2197 21.1835 18.3598 21.9448 20.5878 22.1869C20.7886 22.205 20.991 22.181 21.182 22.1164C21.3731 22.0518 21.5485 21.9481 21.6971 21.8117C21.8456 21.6754 21.9641 21.5096 22.0449 21.3248C22.1257 21.1401 22.167 20.9405 22.1662 20.7388Z" fill="white"/>
</svg>
