<svg width="30" height="30" viewBox="0 0 30 30" fill="none" xmlns="http://www.w3.org/2000/svg">
<path fill-rule="evenodd" clip-rule="evenodd" d="M15 30C23.2843 30 30 23.2843 30 15C30 6.71573 23.2843 0 15 0C6.71573 0 0 6.71573 0 15C0 23.2843 6.71573 30 15 30ZM22.6908 13.6909C22.6908 19.6727 15 24.7999 15 24.7999C15 24.7999 7.30908 19.6727 7.30908 13.6909C7.30908 11.6511 8.11936 9.69493 9.56168 8.25261C11.004 6.81029 12.9602 6 15 6C17.0397 6 18.9959 6.81029 20.4382 8.25261C21.8805 9.69493 22.6908 11.6511 22.6908 13.6909ZM15 16.2544C16.4159 16.2544 17.5637 15.1067 17.5637 13.6908C17.5637 12.275 16.4159 11.1272 15 11.1272C13.5842 11.1272 12.4364 12.275 12.4364 13.6908C12.4364 15.1067 13.5842 16.2544 15 16.2544Z" fill="white"/>
</svg>
