<svg width="30" height="30" viewBox="0 0 30 30" fill="none" xmlns="http://www.w3.org/2000/svg">
<path fill-rule="evenodd" clip-rule="evenodd" d="M15 30C23.2843 30 30 23.2843 30 15C30 6.71573 23.2843 0 15 0C6.71573 0 0 6.71573 0 15C0 23.2843 6.71573 30 15 30ZM14.25 9.25C11.4886 9.25 9.24997 11.4886 9.24997 14.25C9.24997 17.0114 11.4886 19.25 14.25 19.25C15.5908 19.25 16.8082 18.7223 17.7061 17.8632C17.729 17.8346 17.7538 17.8069 17.7803 17.7804C17.8069 17.7538 17.8346 17.7291 17.8632 17.7062C18.7223 16.8083 19.25 15.5908 19.25 14.25C19.25 11.4886 17.0114 9.25 14.25 9.25ZM14.25 21.25C15.8223 21.25 17.2736 20.7316 18.4421 19.8564L21.0429 22.4571C21.4334 22.8476 22.0665 22.8476 22.4571 22.4571C22.8476 22.0666 22.8476 21.4334 22.4571 21.0429L19.8564 18.4422C20.7316 17.2736 21.25 15.8224 21.25 14.25C21.25 10.384 18.116 7.25 14.25 7.25C10.384 7.25 7.24997 10.384 7.24997 14.25C7.24997 18.116 10.384 21.25 14.25 21.25Z" fill="#D4D7E5"/>
</svg>
