<svg width="25" height="25" viewBox="0 0 25 25" fill="none" xmlns="http://www.w3.org/2000/svg">
<path fill-rule="evenodd" clip-rule="evenodd" d="M12.5 25C19.4036 25 25 19.4036 25 12.5C25 5.59644 19.4036 0 12.5 0C5.59644 0 0 5.59644 0 12.5C0 19.4036 5.59644 25 12.5 25ZM9.5165 13.547C7.90033 13.2575 5.08771 12.5049 6.7666 11.8102L17.4768 7.68534C18.0557 7.41999 19.0977 7.23667 18.6346 8.62609L16.8255 17.2377C16.7772 17.696 16.4057 18.3666 15.3058 17.3824L12.9177 15.6456C12.387 16.2728 11.2533 17.4692 10.9638 17.2377L11.1809 14.343L16.2465 9.78395C16.536 9.49449 16.8689 9.04582 15.8847 9.56685L9.5165 13.547Z" fill="#D4D7E5"/>
</svg>
