<svg width="25" height="25" viewBox="0 0 25 25" fill="none" xmlns="http://www.w3.org/2000/svg">
<path fill-rule="evenodd" clip-rule="evenodd" d="M12.5 25C19.4036 25 25 19.4036 25 12.5C25 5.59644 19.4036 0 12.5 0C5.59644 0 0 5.59644 0 12.5C0 19.4036 5.59644 25 12.5 25ZM18.0375 8.46252C18.7388 8.25134 19.4015 7.92845 20 7.50628C19.788 8.37672 19.3379 9.17095 18.7 9.80001C18.7327 9.971 18.7494 10.1447 18.75 10.3188C18.75 17.5062 11.875 20.6311 6.25 17.5062C7.80447 17.568 9.33783 17.1299 10.625 16.2562C5 13.7562 7.5 8.13128 7.5 8.13128C8.13145 9.03041 8.97546 9.75943 9.95688 10.2534C10.9383 10.7474 12.0266 10.991 13.125 10.9625V10.3375C13.1173 9.76397 13.286 9.20191 13.6081 8.72734C13.9303 8.25278 14.3904 7.8886 14.9263 7.68407C15.4622 7.47953 16.048 7.44451 16.6044 7.58374C17.1608 7.72296 17.6611 8.02972 18.0375 8.46252Z" fill="#D4D7E5"/>
</svg>
