<svg width="30" height="30" viewBox="0 0 30 30" fill="none" xmlns="http://www.w3.org/2000/svg">
<path fill-rule="evenodd" clip-rule="evenodd" d="M15 30C23.2843 30 30 23.2843 30 15C30 6.71573 23.2843 0 15 0C6.71573 0 0 6.71573 0 15C0 23.2843 6.71573 30 15 30ZM15 15C17.2091 15 19 13.2091 19 11C19 8.79086 17.2091 7 15 7C12.7909 7 11 8.79086 11 11C11 13.2091 12.7909 15 15 15ZM22 23C22 21.4087 21.2625 19.8826 19.9497 18.7574C18.637 17.6321 16.8565 17 15 17C13.1435 17 11.363 17.6321 10.0503 18.7574C8.7375 19.8826 8 21.4087 8 23H22Z" fill="#D4D7E5"/>
</svg>
