<svg width="25" height="25" viewBox="0 0 25 25" fill="none" xmlns="http://www.w3.org/2000/svg">
<path fill-rule="evenodd" clip-rule="evenodd" d="M12.5 25C19.4036 25 25 19.4036 25 12.5C25 5.59644 19.4036 0 12.5 0C5.59644 0 0 5.59644 0 12.5C0 19.4036 5.59644 25 12.5 25ZM6.46016 9.18239C5.93797 9.13754 5.3098 9.11848 5.11808 9.18239C4.92635 9.2463 4.99907 9.75794 5.11808 10.0931C6.97299 15.3169 8.5068 16.9945 12.4037 17.3787C12.4862 17.3787 12.5668 17.3797 12.6448 17.3807C13.3242 17.3893 13.8145 17.3955 13.7457 16.7076C13.7617 15.8608 14.2448 15.3244 14.6899 15.6524C16.5113 16.9945 17.1618 17.3787 18.3471 17.3787C18.3753 17.3787 18.4053 17.3788 18.4369 17.3789C19.1928 17.3816 20.8227 17.3874 19.4975 15.9886L17.8199 14.2152C17.8199 14.2152 17.3118 13.4195 18.3471 12.3459C19.2898 11.2275 20.4417 9.6617 19.4975 9.18239H17.0051C16.321 9.18239 16.3292 9.59945 16.3334 9.81112C16.3337 9.82636 16.334 9.84054 16.334 9.85343C16.334 11.2962 14.0908 14.1001 13.7457 12.4897V9.6617C13.7777 9.32618 13.024 8.8576 12.4037 8.79894C11.3827 8.70237 9.98791 8.6839 9.91122 9.37411C10.2467 9.29423 10.8554 10.3235 10.8554 11.0989C10.8554 12.2014 10.3282 13.2072 9.91122 12.6807C9.60532 12.2944 8.79538 10.8715 8.3254 10.0459C8.16201 9.75885 8.03971 9.54399 7.99396 9.46998C7.93005 9.37411 7.06735 9.23454 6.46016 9.18239Z" fill="#D4D7E5"/>
</svg>
